<svg version="1.1" viewBox="0.0 0.0 351.4409448818898 303.1049868766404" fill="none" stroke="none" stroke-linecap="square" stroke-miterlimit="10" xmlns:xlink="http://www.w3.org/1999/xlink" xmlns="http://www.w3.org/2000/svg"><clipPath id="p.0"><path d="m0 0l351.44095 0l0 303.10498l-351.44095 0l0 -303.10498z" clip-rule="nonzero"/></clipPath><g clip-path="url(#p.0)"><path fill="#000000" fill-opacity="0.0" d="m0 0l351.44095 0l0 303.10498l-351.44095 0z" fill-rule="evenodd"/><path fill="#bf9000" d="m179.06824 47.71391l0 0c0 -17.238241 13.974365 -31.212597 31.2126 -31.212597l0 0c8.278091 0 16.217148 3.2884617 22.070648 9.141958c5.853485 5.8534985 9.1419525 13.792543 9.1419525 22.070639l0 0c0 17.238247 -13.97435 31.212597 -31.2126 31.212597l0 0c-17.238235 0 -31.2126 -13.97435 -31.2126 -31.212597z" fill-rule="evenodd"/><path stroke="#000000" stroke-width="1.0" stroke-linejoin="round" stroke-linecap="butt" d="m179.06824 47.71391l0 0c0 -17.238241 13.974365 -31.212597 31.2126 -31.212597l0 0c8.278091 0 16.217148 3.2884617 22.070648 9.141958c5.853485 5.8534985 9.1419525 13.792543 9.1419525 22.070639l0 0c0 17.238247 -13.97435 31.212597 -31.2126 31.212597l0 0c-17.238235 0 -31.2126 -13.97435 -31.2126 -31.212597z" fill-rule="evenodd"/><path fill="#b6d7a8" d="m9.118111 249.95276l0 0c0 -17.23825 13.974356 -31.2126 31.212597 -31.2126l0 0c8.278095 0 16.217144 3.2884674 22.07064 9.1419525c5.8534966 5.8535004 9.141956 13.792557 9.141956 22.070648l0 0c0 17.23825 -13.974354 31.212585 -31.212597 31.212585l0 0c-17.238241 0 -31.212597 -13.974335 -31.212597 -31.212585z" fill-rule="evenodd"/><path stroke="#000000" stroke-width="1.0" stroke-linejoin="round" stroke-linecap="butt" d="m9.118111 249.95276l0 0c0 -17.23825 13.974356 -31.2126 31.212597 -31.2126l0 0c8.278095 0 16.217144 3.2884674 22.07064 9.1419525c5.8534966 5.8535004 9.141956 13.792557 9.141956 22.070648l0 0c0 17.23825 -13.974354 31.212585 -31.212597 31.212585l0 0c-17.238241 0 -31.212597 -13.974335 -31.212597 -31.212585z" fill-rule="evenodd"/><path fill="#000000" d="m44.11391 264.35275l-3.515625 0l0 -22.40625q-1.265625 1.21875 -3.328125 2.4375q-2.0625 1.203125 -3.703125 1.796875l0 -3.390625q2.953125 -1.390625 5.15625 -3.359375q2.203125 -1.96875 3.125 -3.828125l2.265625 0l0 28.75z" fill-rule="nonzero"/><path fill="#b6d7a8" d="m140.64305 249.95276l0 0c0 -17.23825 13.97435 -31.2126 31.212585 -31.2126l0 0c8.278107 0 16.217148 3.2884674 22.070648 9.1419525c5.8535004 5.8535004 9.1419525 13.792557 9.1419525 22.070648l0 0c0 17.23825 -13.97435 31.212585 -31.2126 31.212585l0 0c-17.238235 0 -31.212585 -13.974335 -31.212585 -31.212585z" fill-rule="evenodd"/><path stroke="#000000" stroke-width="1.0" stroke-linejoin="round" stroke-linecap="butt" d="m140.64305 249.95276l0 0c0 -17.23825 13.97435 -31.2126 31.212585 -31.2126l0 0c8.278107 0 16.217148 3.2884674 22.070648 9.1419525c5.8535004 5.8535004 9.1419525 13.792557 9.1419525 22.070648l0 0c0 17.23825 -13.97435 31.212585 -31.2126 31.212585l0 0c-17.238235 0 -31.212585 -13.974335 -31.212585 -31.212585z" fill-rule="evenodd"/><path fill="#000000" d="m180.87321 260.97775l0 3.375l-18.921875 0q-0.046875 -1.265625 0.40625 -2.4375q0.71875 -1.9375 2.3125 -3.8125q1.59375 -1.875 4.59375 -4.34375q4.671875 -3.828125 6.3125 -6.0625q1.640625 -2.234375 1.640625 -4.21875q0 -2.09375 -1.5 -3.53125q-1.484375 -1.4375 -3.890625 -1.4375q-2.53125 0 -4.0625 1.53125q-1.515625 1.515625 -1.546875 4.21875l-3.609375 -0.375q0.375 -4.046875 2.796875 -6.15625q2.421875 -2.125 6.5 -2.125q4.125 0 6.515625 2.28125q2.40625 2.28125 2.40625 5.671875q0 1.71875 -0.703125 3.375q-0.703125 1.65625 -2.328125 3.5q-1.625 1.828125 -5.421875 5.03125q-3.15625 2.65625 -4.0625 3.609375q-0.890625 0.9375 -1.484375 1.90625l14.046875 0z" fill-rule="nonzero"/><path fill="#bf9000" d="m87.543304 136.22047l0 0c0 -17.238243 13.974358 -31.2126 31.2126 -31.2126l0 0c8.278099 0 16.217148 3.2884598 22.070633 9.14196c5.8535004 5.8534927 9.141968 13.7925415 9.141968 22.07064l0 0c0 17.238235 -13.974365 31.2126 -31.2126 31.2126l0 0c-17.238243 0 -31.2126 -13.974365 -31.2126 -31.2126z" fill-rule="evenodd"/><path stroke="#000000" stroke-width="1.0" stroke-linejoin="round" stroke-linecap="butt" d="m87.543304 136.22047l0 0c0 -17.238243 13.974358 -31.2126 31.2126 -31.2126l0 0c8.278099 0 16.217148 3.2884598 22.070633 9.14196c5.8535004 5.8534927 9.141968 13.7925415 9.141968 22.07064l0 0c0 17.238235 -13.974365 31.2126 -31.2126 31.2126l0 0c-17.238243 0 -31.2126 -13.974365 -31.2126 -31.2126z" fill-rule="evenodd"/><path fill="#b6d7a8" d="m265.5748 136.22047l0 0c0 -17.238243 13.974365 -31.2126 31.212616 -31.2126l0 0c8.278076 0 16.217133 3.2884598 22.070618 9.14196c5.8535156 5.8534927 9.141968 13.7925415 9.141968 22.07064l0 0c0 17.238235 -13.974365 31.2126 -31.212585 31.2126l0 0c-17.23825 0 -31.212616 -13.974365 -31.212616 -31.2126z" fill-rule="evenodd"/><path stroke="#000000" stroke-width="1.0" stroke-linejoin="round" stroke-linecap="butt" d="m265.5748 136.22047l0 0c0 -17.238243 13.974365 -31.2126 31.212616 -31.2126l0 0c8.278076 0 16.217133 3.2884598 22.070618 9.14196c5.8535156 5.8534927 9.141968 13.7925415 9.141968 22.07064l0 0c0 17.238235 -13.974365 31.2126 -31.212585 31.2126l0 0c-17.23825 0 -31.212616 -13.974365 -31.212616 -31.2126z" fill-rule="evenodd"/><path fill="#000000" d="m287.35187 143.05797l3.515625 -0.46875q0.59375 2.984375 2.046875 4.3125q1.46875 1.3125 3.546875 1.3125q2.484375 0 4.1875 -1.71875q1.71875 -1.71875 1.71875 -4.25q0 -2.421875 -1.59375 -4.0q-1.578125 -1.578125 -4.015625 -1.578125q-1.0 0 -2.484375 0.390625l0.390625 -3.078125q0.359375 0.03125 0.578125 0.03125q2.234375 0 4.03125 -1.171875q1.796875 -1.171875 1.796875 -3.609375q0 -1.9375 -1.3125 -3.203125q-1.296875 -1.265625 -3.375 -1.265625q-2.046875 0 -3.421875 1.296875q-1.359375 1.28125 -1.75 3.859375l-3.515625 -0.625q0.640625 -3.53125 2.921875 -5.46875q2.296875 -1.953125 5.6875 -1.953125q2.34375 0 4.3125 1.015625q1.984375 1.0 3.03125 2.734375q1.046875 1.734375 1.046875 3.6875q0 1.859375 -1.0 3.390625q-1.0 1.515625 -2.953125 2.40625q2.546875 0.59375 3.953125 2.4375q1.40625 1.84375 1.40625 4.625q0 3.75 -2.734375 6.359375q-2.734375 2.609375 -6.921875 2.609375q-3.765625 0 -6.265625 -2.25q-2.484375 -2.25 -2.828125 -5.828125z" fill-rule="nonzero"/><path fill="#000000" fill-opacity="0.0" d="m140.82654 114.14983l47.370087 -44.377953" fill-rule="evenodd"/><path stroke="#000000" stroke-width="1.0" stroke-linejoin="round" stroke-linecap="butt" d="m140.82654 114.14983l47.370087 -44.377953" fill-rule="evenodd"/><path fill="#000000" fill-opacity="0.0" d="m96.685265 158.2911l-56.346455 60.44095" fill-rule="evenodd"/><path stroke="#000000" stroke-width="1.0" stroke-linejoin="round" stroke-linecap="butt" d="m96.685265 158.2911l-56.346455 60.44095" fill-rule="evenodd"/><path fill="#000000" fill-opacity="0.0" d="m140.82654 158.2911l31.023636 60.44095" fill-rule="evenodd"/><path stroke="#000000" stroke-width="1.0" stroke-linejoin="round" stroke-linecap="butt" d="m140.82654 158.2911l31.023636 60.44095" fill-rule="evenodd"/><path fill="#000000" fill-opacity="0.0" d="m232.35149 69.78455l42.362198 44.377953" fill-rule="evenodd"/><path stroke="#000000" stroke-width="1.0" stroke-linejoin="round" stroke-linecap="butt" d="m232.35149 69.78455l42.362198 44.377953" fill-rule="evenodd"/></g></svg>